# xmcd
#
# Track frame offsets: 
#        150
#        17527
#        32812
#        47017
#        65300
#        79265
#        93107
#        110287
#        124727
#        139665
#
# Disc length: 2071 seconds
#
# Revision: 1
# Processed by: cddbd v1.5.2PL0 Copyright (c) Steve Scherf et al.
# Submitted via: ExactAudioCopyFreeDBPlugin 1.0
#
DISCID=7608150a
DTITLE=Johnny Rodriguez - Gracias
DYEAR=1988
DGENRE=
TTITLE0=Back To Stay
TTITLE1=I Wanta Wake Up With You
TTITLE2=Someday I'm Gonna Finish Leaving You
TTITLE3=She Loves Austin
TTITLE4=You Might Want To Use Me Again
TTITLE5=No Chance To Dance
TTITLE6=Sweet Courtnita Sweet Home
TTITLE7=Where Do I Go To Surrender
TTITLE8=My Memory's Gonna Serve You Right
TTITLE9=I Didn't (Every Chance I Had)
EXTD=
EXTT0=
EXTT1=
EXTT2=
EXTT3=
EXTT4=
EXTT5=
EXTT6=
EXTT7=
EXTT8=
EXTT9=
PLAYORDER=
